<?xml version="1.0" encoding="UTF-8"?>
<svg width="25px" height="35px" viewBox="0 0 25 35" version="1.1" xmlns="http://www.w3.org/2000/svg" xmlns:xlink="http://www.w3.org/1999/xlink">
    <!-- Generator: Sketch 47.1 (45422) - http://www.bohemiancoding.com/sketch -->
    <title>10. Extremo</title>
    <desc>Created with Sketch.</desc>
    <defs></defs>
    <g id="Page-2" stroke="none" stroke-width="1" fill="none" fill-rule="evenodd">
        <g id="10.-Extremo">
            <path d="M12.25,0 C5.4775,0 0,5.4775 0,12.25 C0,21.4375 12.25,35 12.25,35 C12.25,35 24.5,21.4375 24.5,12.25 C24.5,5.4775 19.0225,0 12.25,0 L12.25,0 Z" id="Shape" fill="#B71C1C"></path>
            <path d="M12.2486559,22.4973118 C6.58627352,22.4973118 2,17.9110383 2,12.2486559 C2,6.58627352 6.58627352,2 12.2486559,2 C17.9110383,2 22.4973118,6.58627352 22.4973118,12.2486559 C22.4973118,17.9110383 17.9110383,22.4973118 12.2486559,22.4973118 L12.2486559,22.4973118 Z" id="Shape" fill="#FFFFFF"></path>
            <path d="M12.5,20 C10.56625,20 9,18.43375 9,16.5 C9,14.56625 10.56625,13 12.5,13 C14.43375,13 16,14.56625 16,16.5 C16,18.43375 14.43375,20 12.5,20 L12.5,20 Z" id="Shape" fill="#B71C1C"></path>
            <g id="Group-22" transform="translate(5.500000, 6.000000)" fill="#B71C1C">
                <g id="Group-21">
                    <polygon id="Line-7" points="0.741781958 5.44857253 13.2988177 1.33812487 13.7817806 1.18003073 13.5229616 0 13.0399987 0.158094141 0.482962913 4.2685418 0 4.42663594 0.258819045 5.60666667"></polygon>
                    <polygon id="Path" points="0.482962913 1.33812487 13.0399987 5.44857253 13.5229616 5.60666667 13.7817806 4.42663594 13.2988177 4.2685418 0.741781958 0.158094141 0.258819045 0 0 1.18003073"></polygon>
                </g>
            </g>
        </g>
    </g>
</svg>