<?xml version="1.0" encoding="UTF-8"?>
<svg width="25px" height="35px" viewBox="0 0 25 35" version="1.1" xmlns="http://www.w3.org/2000/svg" xmlns:xlink="http://www.w3.org/1999/xlink">
    <!-- Generator: Sketch 47.1 (45422) - http://www.bohemiancoding.com/sketch -->
    <title>5. Fuerte</title>
    <desc>Created with Sketch.</desc>
    <defs></defs>
    <g id="Page-2" stroke="none" stroke-width="1" fill="none" fill-rule="evenodd">
        <g id="5.-Fuerte">
            <path d="M12.25,0 C5.4775,0 0,5.4775 0,12.25 C0,21.4375 12.25,35 12.25,35 C12.25,35 24.5,21.4375 24.5,12.25 C24.5,5.4775 19.0225,0 12.25,0 L12.25,0 Z" id="Shape" fill="#00E676"></path>
            <path d="M12.2486559,22.4973118 C6.58627352,22.4973118 2,17.9110383 2,12.2486559 C2,6.58627352 6.58627352,2 12.2486559,2 C17.9110383,2 22.4973118,6.58627352 22.4973118,12.2486559 C22.4973118,17.9110383 17.9110383,22.4973118 12.2486559,22.4973118 L12.2486559,22.4973118 Z" id="Path" fill="#FFFFFF"></path>
            <g id="Group-14" transform="translate(7.000000, 5.000000)" fill="#00E676">
                <circle id="Oval-9-Copy" cx="5.5" cy="11.5" r="3.5"></circle>
                <g id="Group-13">
                    <path d="M8.92162298,5.96757392 C9.98492103,5.96757392 10.843246,4.63481575 10.843246,2.98378696 C10.843246,1.33275818 9.98492103,0 8.92162298,0 C7.85832493,0 7,1.33275818 7,2.98378696 C7,4.63481575 7.85832493,5.96757392 8.92162298,5.96757392 L8.92162298,5.96757392 Z" id="Path"></path>
                    <path d="M1.92162298,5.96757392 C2.98492103,5.96757392 3.84324597,4.63481575 3.84324597,2.98378696 C3.84324597,1.33275818 2.98492103,0 1.92162298,0 C0.858324933,0 0,1.33275818 0,2.98378696 C0,4.63481575 0.858324933,5.96757392 1.92162298,5.96757392 L1.92162298,5.96757392 Z" id="Path"></path>
                </g>
            </g>
        </g>
    </g>
</svg>