<?xml version="1.0" encoding="UTF-8"?>
<svg width="25px" height="35px" viewBox="0 0 25 35" version="1.1" xmlns="http://www.w3.org/2000/svg" xmlns:xlink="http://www.w3.org/1999/xlink">
    <!-- Generator: Sketch 47.1 (45422) - http://www.bohemiancoding.com/sketch -->
    <title>6. Muy fuerte</title>
    <desc>Created with Sketch.</desc>
    <defs></defs>
    <g id="Page-2" stroke="none" stroke-width="1" fill="none" fill-rule="evenodd">
        <g id="6.-Muy-fuerte">
            <g id="ic_place">
                <g id="Icon-24px"></g>
            </g>
            <g id="ic_mood-copy" transform="translate(7.000000, 4.000000)">
                <g id="Icon-24px"></g>
            </g>
            <path d="M12.25,0 C5.4775,0 0,5.4775 0,12.25 C0,21.4375 12.25,35 12.25,35 C12.25,35 24.5,21.4375 24.5,12.25 C24.5,5.4775 19.0225,0 12.25,0 L12.25,0 Z" id="Shape" fill="#FBC02D"></path>
            <path d="M12.2486559,22.4973118 C6.58627352,22.4973118 2,17.9110383 2,12.2486559 C2,6.58627352 6.58627352,2 12.2486559,2 C17.9110383,2 22.4973118,6.58627352 22.4973118,12.2486559 C22.4973118,17.9110383 17.9110383,22.4973118 12.2486559,22.4973118 L12.2486559,22.4973118 Z" id="Path" fill="#FFFFFF"></path>
            <g id="Group-16" transform="translate(7.000000, 4.000000)" fill="#FBC02D">
                <path d="M10,15.4982754 C10,14.0308558 7.99,11 5.5,11 C3.01,11 1,14.0308558 1,15.4982754 C1,16.965695 3.01,14.7471877 5.5,14.7471877 C7.99,14.7471877 10,16.965695 10,15.4982754 Z" id="Path-Copy-7"></path>
                <g id="Group-15">
                    <path d="M8.92162298,7.96757392 C9.98492103,7.96757392 10.843246,6.63481575 10.843246,4.98378696 C10.843246,3.33275818 9.98492103,2 8.92162298,2 C7.85832493,2 7,3.33275818 7,4.98378696 C7,6.63481575 7.85832493,7.96757392 8.92162298,7.96757392 L8.92162298,7.96757392 Z" id="Path"></path>
                    <path d="M2.5,7.96757392 C3.88333333,7.96757392 5,6.23367739 5,4.085716 C5,1.93775462 3.88333333,0.203858078 2.5,0.203858078 C1.11666667,0.203858078 0,1.93775462 0,4.085716 C0,6.23367739 1.11666667,7.96757392 2.5,7.96757392 L2.5,7.96757392 Z" id="Path"></path>
                </g>
            </g>
        </g>
    </g>
</svg>