<?xml version="1.0" encoding="UTF-8"?>
<svg width="25px" height="35px" viewBox="0 0 25 35" version="1.1" xmlns="http://www.w3.org/2000/svg" xmlns:xlink="http://www.w3.org/1999/xlink">
    <!-- Generator: Sketch 47.1 (45422) - http://www.bohemiancoding.com/sketch -->
    <title>8. Severo</title>
    <desc>Created with Sketch.</desc>
    <defs></defs>
    <g id="Page-2" stroke="none" stroke-width="1" fill="none" fill-rule="evenodd">
        <g id="8.-Severo">
            <path d="M12.25,0 C5.4775,0 0,5.4775 0,12.25 C0,21.4375 12.25,35 12.25,35 C12.25,35 24.5,21.4375 24.5,12.25 C24.5,5.4775 19.0225,0 12.25,0 L12.25,0 Z" id="Shape" fill="#E64A19"></path>
            <path d="M12,22 C6.475,22 2,17.525 2,12 C2,6.475 6.475,2 12,2 C17.525,2 22,6.475 22,12 C22,17.525 17.525,22 12,22 L12,22 Z" id="Shape" fill="#FFFFFF"></path>
            <g id="Group-20" transform="translate(7.000000, 5.000000)" fill="#E64A19">
                <path d="M6.84416501,11.7573593 L8.13834373,10.3106602 L8.41625209,10 L8.55520627,10.1553301 L8.69416045,10.3106602 L10.2662475,12.0680195 L10.5441559,12.3786797 L9.98833916,13 L9.7104308,12.6893398 L8.41625209,11.2426407 L7.26102755,12.5340097 L6.84416501,13 L6.56625666,12.6893398 L5.27207794,11.2426407 L4.1168534,12.5340097 L3.69999086,13 L3.42208251,12.6893398 L2.12790379,11.2426407 L0.833725073,12.6893398 L0.555816715,13 L0,12.3786797 L0.277908358,12.0680195 L1.84999543,10.3106602 L2.12790379,10 L2.26685797,10.1553301 L2.40581215,10.3106602 L3.69999086,11.7573593 L4.99416958,10.3106602 L5.27207794,10 L5.41103212,10.1553301 L5.5499863,10.3106602 L6.84416501,11.7573593 Z" id="Combined-Shape" stroke="#E64A19"></path>
                <g id="Group-19">
                    <path d="M7.21797985,1.10899653 C7.07879199,1.57925773 7,2.11625997 7,2.68700925 C7,4.54779669 7.8375,6.04987811 8.875,6.04987811 C9.9125,6.04987811 10.75,4.54779669 10.75,2.68700925 C10.75,1.58745004 10.4575655,0.613142155 10.004233,3.23630012e-14 C9.72709663,0.771989116 8.98868498,1.3241404 8.12131148,1.3241404 C7.79625944,1.3241404 7.48931892,1.2465958 7.21797985,1.10899653 Z" id="Combined-Shape" transform="translate(8.875000, 3.024939) scale(-1, 1) translate(-8.875000, -3.024939) "></path>
                    <path d="M0.217979845,1.10899653 C0.0787919856,1.57925773 0,2.11625997 0,2.68700925 C0,4.54779669 0.8375,6.04987811 1.875,6.04987811 C2.9125,6.04987811 3.75,4.54779669 3.75,2.68700925 C3.75,1.58745004 3.45756555,0.613142155 3.00423299,3.23630012e-14 C2.72709663,0.771989116 1.98868498,1.3241404 1.12131148,1.3241404 C0.796259443,1.3241404 0.489318922,1.2465958 0.217979845,1.10899653 Z" id="Combined-Shape"></path>
                </g>
            </g>
        </g>
    </g>
</svg>