<?xml version="1.0" encoding="UTF-8"?>
<svg width="25px" height="35px" viewBox="0 0 25 35" version="1.1" xmlns="http://www.w3.org/2000/svg" xmlns:xlink="http://www.w3.org/1999/xlink">
    <!-- Generator: Sketch 47.1 (45422) - http://www.bohemiancoding.com/sketch -->
    <title>9. Violento</title>
    <desc>Created with Sketch.</desc>
    <defs></defs>
    <g id="Page-2" stroke="none" stroke-width="1" fill="none" fill-rule="evenodd">
        <g id="9.-Violento">
            <path d="M12.25,0 C5.4775,0 0,5.4775 0,12.25 C0,21.4375 12.25,35 12.25,35 C12.25,35 24.5,21.4375 24.5,12.25 C24.5,5.4775 19.0225,0 12.25,0 L12.25,0 Z" id="Shape" fill="#E53935"></path>
            <path d="M12.2486559,22.4973118 C6.58627352,22.4973118 2,17.9110383 2,12.2486559 C2,6.58627352 6.58627352,2 12.2486559,2 C17.9110383,2 22.4973118,6.58627352 22.4973118,12.2486559 C22.4973118,17.9110383 17.9110383,22.4973118 12.2486559,22.4973118 L12.2486559,22.4973118 Z" id="Shape" fill="#FFFFFF"></path>
            <g id="Group-22" transform="translate(5.500000, 6.000000)" fill="#E53935">
                <path d="M11.5,12.5 C11.5,10.01 9.49,8 7,8 C4.51,8 2.5,10.01 2.5,12.5 C2.5,14.99 4.51,12.5 7,12.5 C9.49,12.5 11.5,14.99 11.5,12.5 Z" id="Path"></path>
                <g id="Group-21">
                    <polygon id="Line-7" points="0.741781958 5.44857253 13.2988177 1.33812487 13.7817806 1.18003073 13.5229616 0 13.0399987 0.158094141 0.482962913 4.2685418 0 4.42663594 0.258819045 5.60666667"></polygon>
                    <polygon id="Path" points="0.482962913 1.33812487 13.0399987 5.44857253 13.5229616 5.60666667 13.7817806 4.42663594 13.2988177 4.2685418 0.741781958 0.158094141 0.258819045 0 0 1.18003073"></polygon>
                </g>
            </g>
        </g>
    </g>
</svg>